<?xml version="1.0" encoding="UTF-8"?>
<svg version="1.1" xmlns="http://www.w3.org/2000/svg" width="480" height="480">
<path d="M0 0 C158.4 0 316.8 0 480 0 C480 158.4 480 316.8 480 480 C321.6 480 163.2 480 0 480 C0 321.6 0 163.2 0 0 Z " fill="#0DA861" transform="translate(0,0)"/>
<path d="M0 0 C26.33946675 14.0477156 43.52759894 38.59790753 52.40307617 66.74584961 C53.50526996 70.9080399 54.13060906 75.10995587 54.6875 79.375 C54.81342529 80.33325684 54.93935059 81.29151367 55.0690918 82.27880859 C57.36549969 101.1009575 57.56346377 122.98805171 51 141 C50.7824707 141.60312012 50.56494141 142.20624023 50.34082031 142.82763672 C37.81139426 176.93184065 15.6521849 198.82375368 -17 214 C-20.6157307 215.60146532 -24.20745802 216.88219815 -28 218 C-29.2065625 218.37125 -30.413125 218.7425 -31.65625 219.125 C-58.33184134 226.57112713 -88.26908562 223.00340551 -113 211 C-114.67225941 210.00938088 -116.34029798 209.01151717 -118 208 C-119.051875 207.608125 -120.10375 207.21625 -121.1875 206.8125 C-126.50101975 204.59278287 -130.66655756 200.70880209 -135 197 C-135.81726563 196.30648437 -136.63453125 195.61296875 -137.4765625 194.8984375 C-158.78711003 176.29399124 -174.96152273 150.4117356 -177.82348633 121.71606445 C-178.21760362 115.65167324 -178.19853922 109.57472568 -178.1875 103.5 C-178.18623108 102.78690674 -178.18496216 102.07381348 -178.18365479 101.33911133 C-178.12612969 84.41247208 -176.98310017 69.60680821 -170 54 C-169.70319336 53.33081543 -169.40638672 52.66163086 -169.10058594 51.97216797 C-160.47265095 32.87268303 -145.21076837 9.23949058 -125 1 C-122 2 -122 2 -120.77319336 4.22143555 C-120.38268799 5.183479 -119.99218262 6.14552246 -119.58984375 7.13671875 C-118.94112305 8.71549805 -118.94112305 8.71549805 -118.27929688 10.32617188 C-117.61510742 11.9900293 -117.61510742 11.9900293 -116.9375 13.6875 C-116.49083984 14.77740234 -116.04417969 15.86730469 -115.58398438 16.99023438 C-109.21257518 32.63780584 -109.21257518 32.63780584 -110 37 C-112.16015625 39.5078125 -112.16015625 39.5078125 -115.0625 42.125 C-131.19391284 57.41268731 -137.37791165 78.05446553 -138.2734375 99.69140625 C-138.88227751 124.66648709 -131.94884819 146.16616568 -114.59375 164.61328125 C-99.40992812 179.61574081 -79.65368545 185.43144275 -58.86230469 185.36352539 C-38.14291188 185.03642299 -19.32261984 175.84770777 -4.875 161 C12.64907293 140.85706721 17.73620283 116.06002238 16 90 C13.62574485 71.37095085 4.39596162 53.04930088 -9 40 C-10.32445473 38.98827007 -11.65651662 37.98632154 -13 37 C-11.85207482 28.39758046 -9.26038168 20.86495594 -5.9375 12.875 C-5.47794922 11.740625 -5.01839844 10.60625 -4.54492188 9.4375 C-1.16919168 1.16919168 -1.16919168 1.16919168 0 0 Z " fill="#FCFDFD" transform="translate(301,224)"/>
<path d="M0 0 C14.21745023 -0.83739143 31.26084552 4.09878462 42.17578125 13.3203125 C42.69575684 13.75698242 43.21573242 14.19365234 43.75146484 14.64355469 C52.9611449 22.56499974 58.67919668 31.08190997 63.17578125 42.3203125 C63.55476563 43.23039062 63.93375 44.14046875 64.32421875 45.078125 C69.75669566 60.97684183 66.2193039 78.01931759 59.6015625 92.84765625 C51.87657067 108.27963294 39.67624309 118.59652788 23.5546875 124.56640625 C22.76964844 124.81519531 21.98460937 125.06398438 21.17578125 125.3203125 C20.19738281 125.67351562 19.21898437 126.02671875 18.2109375 126.390625 C5.9871433 129.80698933 -11.71027577 129.46489516 -23.1875 123.859375 C-24.49267578 123.09753906 -24.49267578 123.09753906 -25.82421875 122.3203125 C-27.23767578 121.55847656 -27.23767578 121.55847656 -28.6796875 120.78125 C-45.87585368 110.77189534 -54.11717169 95.96564034 -59.64453125 77.59375 C-63.65012624 60.72511758 -59.88801221 43.54435185 -51.8671875 28.51171875 C-48.5335639 23.304127 -44.5351473 19.29003595 -39.82421875 15.3203125 C-39.06496094 14.67449219 -38.30570313 14.02867188 -37.5234375 13.36328125 C-26.77285938 5.06997813 -13.26979945 1.50501183 0 0 Z " fill="#0DA861" transform="translate(236.82421875,59.6796875)"/>
<path d="M0 0 C17.33404701 15.58234926 27.80961703 37.02678021 29.23095703 60.24853516 C30.39866666 85.43769994 23.9505269 104.27789037 9.86669922 124.82568359 C0.89394917 137.98006761 -7.07987732 151.56033503 -13.91064453 165.93505859 C-14.52810547 167.07716797 -15.14556641 168.21927734 -15.78173828 169.39599609 C-19.02923747 175.88084361 -21.13838971 182.87605254 -23.41064453 189.74755859 C-23.65531464 190.48426788 -23.89998474 191.22097717 -24.15206909 191.98001099 C-29.6010279 208.46032946 -33.03791548 224.47504056 -34.69287109 241.75292969 C-35.04676655 245.29902563 -35.48131825 248.834943 -35.91064453 252.37255859 C-36.45338563 256.88058944 -36.96358455 261.38909097 -37.41064453 265.90771484 C-37.53632813 267.16467163 -37.53632813 267.16467163 -37.66455078 268.44702148 C-37.82296497 270.04860779 -37.97696488 271.65064004 -38.12548828 273.25317383 C-39.54582597 287.57024003 -39.54582597 287.57024003 -42.91064453 290.93505859 C-45.41064453 290.74755859 -45.41064453 290.74755859 -47.91064453 289.93505859 C-51.20318653 284.9962456 -50.29290326 279.43026667 -50.28564453 273.62255859 C-50.28582581 272.62890289 -50.28582581 272.62890289 -50.28601074 271.61517334 C-50.25025813 257.72029346 -48.64785559 244.17410426 -46.46630859 230.45361328 C-45.93498581 227.08919151 -45.44530999 223.72119555 -44.96533203 220.34912109 C-43.14855203 208.02213897 -40.41946211 196.55176826 -35.91064453 184.93505859 C-35.63849121 184.2230127 -35.36633789 183.5109668 -35.0859375 182.77734375 C-27.34755176 162.71000445 -17.24597192 143.38391601 -5.41064453 125.43505859 C9.58095189 102.63533904 20.8645725 80.53606366 16.72314453 52.45166016 C15.70165342 47.74345686 14.03601174 43.33679196 12.08935547 38.93505859 C11.65526367 37.92475586 11.65526367 37.92475586 11.21240234 36.89404297 C2.63853478 17.32523697 -11.2904461 2.48706745 -31.28955078 -5.39697266 C-51.1195354 -12.81984716 -72.0620264 -14.08787605 -91.91064453 -6.06494141 C-93.74175781 -5.33791016 -93.74175781 -5.33791016 -95.60986328 -4.59619141 C-104.38651733 -0.65683513 -110.9094967 4.76523876 -117.56396484 11.56152344 C-118.68519694 12.70511513 -119.83730346 13.81833461 -120.99658203 14.92333984 C-134.74106869 28.94769162 -139.25188084 49.90909874 -139.29345703 68.71972656 C-139.0134716 89.83821075 -129.46739198 106.66328555 -118.35205078 124.07177734 C-108.65307833 139.30435659 -98.84138211 156.02573298 -92.53564453 172.99755859 C-91.19171728 176.5813646 -89.83478952 180.15169048 -88.36376953 183.68505859 C-88.10128418 184.32048584 -87.83879883 184.95591309 -87.56835938 185.6105957 C-86.83074643 187.38882728 -86.08577617 189.16400191 -85.34033203 190.93896484 C-80.72507937 203.19004736 -79.27547322 216.38188879 -77.28564453 229.24755859 C-76.97102612 231.25349422 -76.65592546 233.25935426 -76.34033203 235.26513672 C-75.52103525 240.48703571 -74.70736646 245.70966638 -73.91064453 250.93505859 C-73.71841309 252.17143066 -73.52618164 253.40780273 -73.328125 254.68164062 C-72.65210126 259.9498818 -72.68536149 265.19268229 -72.66064453 270.49755859 C-72.64001953 271.60808594 -72.61939453 272.71861328 -72.59814453 273.86279297 C-72.54859721 284.21198971 -72.54859721 284.21198971 -75.91064453 288.93505859 C-78.09814453 289.81005859 -78.09814453 289.81005859 -79.91064453 289.93505859 C-82.88977717 286.57313237 -83.66783382 283.55272127 -84.53564453 279.18505859 C-84.77541016 278.01458984 -85.01517578 276.84412109 -85.26220703 275.63818359 C-86.53659368 268.36036104 -87.01775726 261.41968942 -87.14990234 254.03735352 C-87.5245482 234.97162578 -89.91067136 217.04348736 -96.19677734 199.01464844 C-96.97615825 196.74420844 -97.70563026 194.4606053 -98.43408203 192.17333984 C-101.89611305 181.54077255 -106.25455322 171.84851931 -111.67626953 162.07177734 C-113.07128924 159.55360711 -114.24050927 157.14907361 -115.35986328 154.48193359 C-117.3602985 149.90663087 -119.87528362 145.75482066 -122.47314453 141.49755859 C-123.00182129 140.62373535 -123.53049805 139.74991211 -124.07519531 138.84960938 C-127.43620018 133.30974618 -130.84740056 127.80222364 -134.28564453 122.31005859 C-134.6972583 121.6471582 -135.10887207 120.98425781 -135.53295898 120.30126953 C-137.18767608 117.6426615 -138.84858211 115.0231427 -140.65283203 112.46240234 C-152.17685613 95.53462601 -154.46756531 70.11716929 -151.07470703 50.38427734 C-146.57041239 28.29293314 -134.60778397 6.90365666 -115.72314453 -6.12744141 C-114.12973444 -7.12401671 -112.52415476 -8.10124913 -110.91064453 -9.06494141 C-109.83556641 -9.72623047 -108.76048828 -10.38751953 -107.65283203 -11.06884766 C-73.22143553 -31.85046641 -29.8760756 -25.77308223 0 0 Z " fill="#F6FBF9" transform="translate(300.91064453125,57.06494140625)"/>
<path d="M0 0 C14.21745023 -0.83739143 31.26084552 4.09878462 42.17578125 13.3203125 C42.69575684 13.75698242 43.21573242 14.19365234 43.75146484 14.64355469 C52.9611449 22.56499974 58.67919668 31.08190997 63.17578125 42.3203125 C63.55476563 43.23039062 63.93375 44.14046875 64.32421875 45.078125 C69.75669566 60.97684183 66.2193039 78.01931759 59.6015625 92.84765625 C51.87657067 108.27963294 39.67624309 118.59652788 23.5546875 124.56640625 C22.76964844 124.81519531 21.98460937 125.06398438 21.17578125 125.3203125 C20.19738281 125.67351562 19.21898437 126.02671875 18.2109375 126.390625 C5.9871433 129.80698933 -11.71027577 129.46489516 -23.1875 123.859375 C-24.49267578 123.09753906 -24.49267578 123.09753906 -25.82421875 122.3203125 C-27.23767578 121.55847656 -27.23767578 121.55847656 -28.6796875 120.78125 C-45.87585368 110.77189534 -54.11717169 95.96564034 -59.64453125 77.59375 C-63.65012624 60.72511758 -59.88801221 43.54435185 -51.8671875 28.51171875 C-48.5335639 23.304127 -44.5351473 19.29003595 -39.82421875 15.3203125 C-39.06496094 14.67449219 -38.30570313 14.02867188 -37.5234375 13.36328125 C-26.77285938 5.06997813 -13.26979945 1.50501183 0 0 Z M-3.5546875 8.26953125 C-16.32315151 8.49353939 -27.8194195 15.40900852 -36.7734375 24.15234375 C-48.55135781 36.60328808 -53.59963759 49.9325501 -53.34912109 67.08154297 C-52.66431587 83.83168411 -45.25813915 96.6051182 -33.1796875 107.8515625 C-20.22720564 118.08238361 -2.82132569 120.82627691 13.17578125 119.3203125 C28.68734426 116.35610502 41.11633306 108.42899582 50.03369141 95.57006836 C53.73155073 89.8962107 55.67230899 83.90695287 57.17578125 77.3203125 C57.36269531 76.56363281 57.54960937 75.80695313 57.7421875 75.02734375 C60.10543833 60.27299395 58.41671946 46.40182808 50.5 33.61328125 C48.83806207 31.37062018 47.09088413 29.34926438 45.17578125 27.3203125 C44.24958984 26.27810547 44.24958984 26.27810547 43.3046875 25.21484375 C33.59310886 14.79981072 20.83555756 9.04677831 6.66796875 8.1640625 C3.25515552 8.1201678 -0.14214591 8.33299769 -3.5546875 8.26953125 Z " fill="#F1F9F5" transform="translate(236.82421875,59.6796875)"/>
<path d="M0 0 C1 1 1 1 1.25390625 4.14453125 C0.97096759 8.440846 -0.06023475 10.89859807 -2.0625 14.6875 C-2.37396973 15.28473877 -2.68543945 15.88197754 -3.00634766 16.49731445 C-5.70835202 21.61893325 -8.62542567 26.61701697 -11.6171875 31.57421875 C-13.11384783 34.01638494 -13.11384783 34.01638494 -14 37 C-12.73542969 36.97679687 -11.47085938 36.95359375 -10.16796875 36.9296875 C-8.5078184 36.91092874 -6.84766167 36.89272865 -5.1875 36.875 C-4.35412109 36.85824219 -3.52074219 36.84148437 -2.66210938 36.82421875 C-1.45844727 36.81455078 -1.45844727 36.81455078 -0.23046875 36.8046875 C0.50792236 36.79421387 1.24631348 36.78374023 2.00708008 36.77294922 C4 37 4 37 7 39 C7.57294649 44.23558658 6.56932787 47.80742055 4.3671875 52.52734375 C4.09286896 53.11995499 3.81855042 53.71256622 3.53591919 54.32313538 C2.95550604 55.56894394 2.36855131 56.81172385 1.77539062 58.05151367 C0.88242725 59.92194265 0.01408435 61.80234643 -0.8515625 63.68554688 C-4.10568375 70.66145237 -7.49582469 77.49582469 -13 83 C-15.5 83.125 -15.5 83.125 -18 83 C-19 82 -19 82 -19.296875 78.9375 C-18.93860328 74.18568562 -17.48285876 71.13316409 -15.25 67 C-14.90195313 66.32710938 -14.55390625 65.65421875 -14.1953125 64.9609375 C-12.48724248 61.68397353 -10.69440172 58.48305098 -8.796875 55.3125 C-7.20883149 52.38497632 -6.39628576 50.26935749 -6 47 C-6.55985596 47.01571045 -7.11971191 47.0314209 -7.6965332 47.04760742 C-10.2350859 47.10999848 -12.77347729 47.14900218 -15.3125 47.1875 C-16.63411133 47.22520508 -16.63411133 47.22520508 -17.98242188 47.26367188 C-19.25375977 47.27817383 -19.25375977 47.27817383 -20.55078125 47.29296875 C-21.33106689 47.3086792 -22.11135254 47.32438965 -22.9152832 47.34057617 C-25.54404941 46.91111969 -26.4280636 46.11835495 -28 44 C-27.93179985 38.33086268 -25.03137596 33.49578784 -22.5 28.5625 C-22.0558374 27.6866626 -21.6116748 26.8108252 -21.15405273 25.90844727 C-18.28566156 20.32070528 -15.28082729 14.83130315 -12.0625 9.4375 C-11.69769531 8.82527588 -11.33289063 8.21305176 -10.95703125 7.58227539 C-5.93603863 -0.62484617 -5.93603863 -0.62484617 0 0 Z " fill="#F4FAF7" transform="translate(250,81)"/>
<path d="M0 0 C0.66 0.33 1.32 0.66 2 1 C1.01 1.99 0.02 2.98 -1 4 C-1.66 3.67 -2.32 3.34 -3 3 C-2.01 2.01 -1.02 1.02 0 0 Z M-3 4 C-4.58667578 7.90285767 -7.13350481 10.33520982 -10.125 13.25 C-11.03507813 14.14203125 -11.94515625 15.0340625 -12.8828125 15.953125 C-13.58148438 16.62859375 -14.28015625 17.3040625 -15 18 C-15.99 17.67 -16.98 17.34 -18 17 C-15.88094537 14.82722286 -13.75527122 12.66173092 -11.625 10.5 C-11.02171875 9.87996094 -10.4184375 9.25992188 -9.796875 8.62109375 C-9.21679688 8.03457031 -8.63671875 7.44804688 -8.0390625 6.84375 C-7.50490723 6.29912109 -6.97075195 5.75449219 -6.42041016 5.19335938 C-5 4 -5 4 -3 4 Z " fill="#15AC68" transform="translate(195,57)"/>
<path d="M0 0 C0.66 0.99 1.32 1.98 2 3 C0.68 5.31 -0.64 7.62 -2 10 C-2.66 10 -3.32 10 -4 10 C-2.8905928 6.51329166 -1.73662334 3.22515763 0 0 Z " fill="#3CB67D" transform="translate(298,147)"/>
<path d="M0 0 C-1.24176695 0.70226141 -2.49385599 1.38629109 -3.75 2.0625 C-4.79414063 2.63677734 -4.79414063 2.63677734 -5.859375 3.22265625 C-8.36140628 4.1312406 -9.5332355 3.88336837 -12 3 C-10.5682384 2.30062798 -9.12932968 1.61587282 -7.6875 0.9375 C-6.48673828 0.36322266 -6.48673828 0.36322266 -5.26171875 -0.22265625 C-3 -1 -3 -1 0 0 Z " fill="#55BD8B" transform="translate(227,70)"/>
</svg>
